<?xml version="1.0" encoding="UTF-8" standalone="no"?>
<svg xmlns:svg="http://www.w3.org/2000/svg" xmlns="http://www.w3.org/2000/svg" xmlns:xlink="http://www.w3.org/1999/xlink" version="1.0" width="64px" height="64px" viewBox="0 0 128 128" xml:space="preserve"><g><path d="M124.67 48.84l-6.12 2.54a55.8 55.8 0 0 1 0 25.24l6.12 2.54a1.36 1.36 0 0 1 .74 1.78l-6.02 14.6a1.36 1.36 0 0 1-1.78.72l-6.13-2.53a55.8 55.8 0 0 1-17.85 17.85l2.55 6.12a1.36 1.36 0 0 1-.74 1.78l-14.6 6.04a1.36 1.36 0 0 1-1.77-.74l-2.53-6.1a55.82 55.82 0 0 1-25.25 0l-2.53 6.1a1.36 1.36 0 0 1-1.78.74l-14.6-6.04a1.36 1.36 0 0 1-.74-1.78l2.54-6.12A55.8 55.8 0 0 1 16.3 93.73l-6.1 2.53a1.36 1.36 0 0 1-1.8-.73l-6.03-14.6a1.36 1.36 0 0 1 .74-1.77l6.14-2.54a55.8 55.8 0 0 1 0-25.24L3.1 48.84a1.36 1.36 0 0 1-.73-1.77l6.05-14.6a1.36 1.36 0 0 1 1.77-.73l6.1 2.53a55.8 55.8 0 0 1 17.84-17.85L31.6 10.3a1.36 1.36 0 0 1 .74-1.78l14.6-6.04a1.36 1.36 0 0 1 1.78.73l2.53 6.15a55.82 55.82 0 0 1 25.25 0l2.53-6.12a1.36 1.36 0 0 1 1.78-.73l14.6 6.04a1.36 1.36 0 0 1 .77 1.78l-2.54 6.12A55.8 55.8 0 0 1 111.5 34.3l6.1-2.54a1.36 1.36 0 0 1 1.8.73l6.03 14.6a1.36 1.36 0 0 1-.73 1.75zm-60.8-14.8a30.1 30.1 0 1 0 30.1 30.1 30.1 30.1 0 0 0-30.1-30.1z" fill="#ffffff" fill-opacity="1"/><animateTransform attributeName="transform" type="rotate" from="0 64 64" to="45 64 64" dur="1620ms" repeatCount="indefinite"></animateTransform></g><g><circle cx="63.88" cy="64" r="10.5"/><animate attributeName="fill" dur="1620ms" begin="0s" repeatCount="indefinite" keyTimes="0;0.5;1" values="transparent;#ffffff;transparent;"/></g></svg>